<svg xmlns="http://www.w3.org/2000/svg" xmlns:xlink="http://www.w3.org/1999/xlink" xml:space="preserve" version="1.1" style="fill:#4c4c4c shape-rendering:geometricPrecision;text-rendering:geometricPrecision;image-rendering:optimizeQuality;" viewBox="0 0 0.707 0.72875" x="0px" y="0px" fill-rule="evenodd" clip-rule="evenodd"><defs><style type="text/css">
    
    .fil0 {fill:#4c4c4c}
   
  </style></defs><g><path class="fil0" d="M0.636 0.498c0.041,-0.05 0.066,-0.118 0.07,-0.195 -0.053,0.017 -0.097,0.049 -0.132,0.092 -0.04,0.05 -0.068,0.114 -0.085,0.187 0.059,-0.007 0.11,-0.037 0.147,-0.084zm-0.041 -0.399l0 0.062 0.112 0 0 -0.062 -0.112 0zm-0.595 0.062l0.112 0 0 -0.062 -0.112 0 0 0.062zm0.162 0.211c0.046,0.056 0.077,0.13 0.095,0.211l0.193 0c0.018,-0.081 0.049,-0.155 0.095,-0.211 0.042,-0.052 0.096,-0.09 0.162,-0.108l0 -0.066 -0.13 0c-0.01,0 -0.019,-0.008 -0.019,-0.018l0 -0.099c0,-0.011 0.009,-0.019 0.019,-0.019l0.13 0 0 -0.062 -0.707 0 0 0.062 0.13 0c0.011,0 0.019,0.008 0.019,0.019l0 0.099c0,0.01 -0.008,0.018 -0.019,0.018l-0.13 0 0 0.066c0.066,0.018 0.12,0.056 0.162,0.108zm0.057 0.21c-0.018,-0.073 -0.046,-0.137 -0.086,-0.187 -0.035,-0.043 -0.079,-0.075 -0.132,-0.092 0.004,0.077 0.029,0.145 0.07,0.195 0.037,0.047 0.088,0.077 0.148,0.084z"/></g><text x="0" y="15.583" fill="#000000" font-size="5px" font-weight="bold" font-family="'Helvetica Neue', Helvetica, Arial-Unicode, Arial, Sans-serif">Created by Nociconist</text><text x="0" y="20.583" fill="#000000" font-size="5px" font-weight="bold" font-family="'Helvetica Neue', Helvetica, Arial-Unicode, Arial, Sans-serif">from the Noun Project</text></svg>